# xmcd CD database file
#
# Track frame offsets:
#	150
#	14052
#	25387
#	38010
#	52377
#	69540
#	82457
#	96255
#	110750
#	131855
#	144405
#	158452
#	173217
#	187825
#	200662
#
# Disc length: 2902 seconds
#
# Revision: 3
# Processed by: cddbd v1.5.2PL0 Copyright (c) Steve Scherf et al.
# Submitted via: CDex 1.70beta2
#
DISCID=e00b540f
DTITLE=Various Artist - Classic Country Great Story Songs [CD2]
DYEAR=2001
DGENRE=Country
TTITLE0=The Kingston Trio - Tom Dooley
TTITLE1=SSgt Barry Sadler - The Ballad Of The Green Berets
TTITLE2=Walter Brennan - Old Rivers
TTITLE3=Lefty Frizzell - The Long Black Veil
TTITLE4=Johnny Cash - A Boy Named Sue
TTITLE5=Johnny Horton - North To Alaska
TTITLE6=Dave Dudley - The Pool Shark
TTITLE7=Jimmy Dean - P. T. 109
TTITLE8=Marty Robbins - El Paso
TTITLE9=Freddie Hart - The Wall
TTITLE10=Eddy Arnold - Tennessee Stud
TTITLE11=Jeannie C. Riley - Harper Valley P.T.A.
TTITLE12=Johnny Horton - Sink The Bismark
TTITLE13=Bobby Bare - Detroit City
TTITLE14=C. W. McCall - Convoy
EXTD=YEAR: 2001
EXTT0=
EXTT1=
EXTT2=
EXTT3=
EXTT4=
EXTT5=
EXTT6=
EXTT7=
EXTT8=
EXTT9=
EXTT10=
EXTT11=
EXTT12=
EXTT13=
EXTT14=
PLAYORDER=
